<?xml version="1.0" encoding="UTF-8"?>
<svg xmlns="http://www.w3.org/2000/svg" xmlns:xlink="http://www.w3.org/1999/xlink" width="480pt" height="480pt" viewBox="0 0 480 480" version="1.1">
<g id="surface14671968">
<path style=" stroke:none;fill-rule:nonzero;fill:rgb(43.921569%,43.529412%,82.745098%);fill-opacity:1;" d="M 15 219 L 465 219 L 465 261 L 15 261 Z M 15 219 "/>
<path style=" stroke:none;fill-rule:nonzero;fill:rgb(45.490196%,58.823529%,76.862745%);fill-opacity:1;" d="M 462 222 L 462 258 L 18 258 L 18 222 L 462 222 M 468 216 L 12 216 L 12 264 L 468 264 Z M 468 216 "/>
<path style=" stroke:none;fill-rule:nonzero;fill:rgb(43.921569%,43.529412%,82.745098%);fill-opacity:1;" d="M 15 99 L 465 99 L 465 141 L 15 141 Z M 15 99 "/>
<path style=" stroke:none;fill-rule:nonzero;fill:rgb(45.490196%,58.823529%,76.862745%);fill-opacity:1;" d="M 462 102 L 462 138 L 18 138 L 18 102 L 462 102 M 468 96 L 12 96 L 12 144 L 468 144 Z M 468 96 "/>
<path style=" stroke:none;fill-rule:nonzero;fill:rgb(43.921569%,43.529412%,82.745098%);fill-opacity:1;" d="M 15 339 L 465 339 L 465 381 L 15 381 Z M 15 339 "/>
<path style=" stroke:none;fill-rule:nonzero;fill:rgb(45.490196%,58.823529%,76.862745%);fill-opacity:1;" d="M 462 342 L 462 378 L 18 378 L 18 342 L 462 342 M 468 336 L 12 336 L 12 384 L 468 384 Z M 468 336 "/>
</g>
</svg>
